<svg xmlns="http://www.w3.org/2000/svg" width="160" height="175" viewBox="0 0 160 175" role="img" aria-label="Nova, level 9 Code Builder">
<title>Nova, level 9 Code Builder</title>
<style>
.bob{animation:bob 1.1s steps(1) infinite alternate}
@keyframes bob{from{transform:translateY(0)}to{transform:translateY(-5px)}}
@media (prefers-reduced-motion:reduce){.bob{animation:none}}
</style>
<ellipse cx="80" cy="162" rx="48" ry="6" fill="#000" opacity="0.35"/>
<g shape-rendering="crispEdges"><g class="bob"><rect x="40" y="30" width="80" height="10" fill="#fbbf24"/><rect x="30" y="40" width="100" height="10" fill="#fbbf24"/><rect x="40" y="50" width="80" height="10" fill="#151b2e"/><rect x="30" y="60" width="10" height="10" fill="#151b2e"/><rect x="40" y="60" width="40" height="10" fill="#fde68a"/><rect x="80" y="60" width="40" height="10" fill="#f59e0b"/><rect x="120" y="60" width="10" height="10" fill="#151b2e"/><rect x="20" y="70" width="10" height="10" fill="#151b2e"/><rect x="30" y="70" width="10" height="10" fill="#fde68a"/><rect x="40" y="70" width="80" height="10" fill="#fbbf24"/><rect x="120" y="70" width="10" height="10" fill="#f59e0b"/><rect x="130" y="70" width="10" height="10" fill="#151b2e"/><rect x="20" y="80" width="10" height="10" fill="#151b2e"/><rect x="30" y="80" width="10" height="10" fill="#fde68a"/><rect x="40" y="80" width="10" height="10" fill="#fbbf24"/><rect x="50" y="80" width="20" height="10" fill="#e0f2fe"/><rect x="70" y="80" width="20" height="10" fill="#fbbf24"/><rect x="90" y="80" width="20" height="10" fill="#e0f2fe"/><rect x="110" y="80" width="10" height="10" fill="#fbbf24"/><rect x="120" y="80" width="10" height="10" fill="#f59e0b"/><rect x="130" y="80" width="10" height="10" fill="#151b2e"/><rect x="20" y="90" width="10" height="10" fill="#151b2e"/><rect x="30" y="90" width="10" height="10" fill="#fde68a"/><rect x="40" y="90" width="10" height="10" fill="#fbbf24"/><rect x="50" y="90" width="10" height="10" fill="#e0f2fe"/><rect x="60" y="90" width="10" height="10" fill="#0b0f1a"/><rect x="70" y="90" width="20" height="10" fill="#fbbf24"/><rect x="90" y="90" width="10" height="10" fill="#e0f2fe"/><rect x="100" y="90" width="10" height="10" fill="#0b0f1a"/><rect x="110" y="90" width="10" height="10" fill="#fbbf24"/><rect x="120" y="90" width="10" height="10" fill="#f59e0b"/><rect x="130" y="90" width="10" height="10" fill="#151b2e"/><rect x="20" y="100" width="10" height="10" fill="#151b2e"/><rect x="30" y="100" width="10" height="10" fill="#fde68a"/><rect x="40" y="100" width="80" height="10" fill="#fbbf24"/><rect x="120" y="100" width="10" height="10" fill="#b45309"/><rect x="130" y="100" width="10" height="10" fill="#151b2e"/><rect x="20" y="110" width="10" height="10" fill="#151b2e"/><rect x="30" y="110" width="10" height="10" fill="#f59e0b"/><rect x="40" y="110" width="10" height="10" fill="#ff8fab"/><rect x="50" y="110" width="10" height="10" fill="#f59e0b"/><rect x="60" y="110" width="10" height="10" fill="#0b0f1a"/><rect x="70" y="110" width="20" height="10" fill="#f59e0b"/><rect x="90" y="110" width="10" height="10" fill="#0b0f1a"/><rect x="100" y="110" width="10" height="10" fill="#f59e0b"/><rect x="110" y="110" width="10" height="10" fill="#ff8fab"/><rect x="120" y="110" width="10" height="10" fill="#b45309"/><rect x="130" y="110" width="10" height="10" fill="#151b2e"/><rect x="20" y="120" width="10" height="10" fill="#151b2e"/><rect x="30" y="120" width="40" height="10" fill="#b45309"/><rect x="70" y="120" width="20" height="10" fill="#0b0f1a"/><rect x="90" y="120" width="40" height="10" fill="#b45309"/><rect x="130" y="120" width="10" height="10" fill="#151b2e"/><rect x="30" y="130" width="10" height="10" fill="#151b2e"/><rect x="40" y="130" width="80" height="10" fill="#b45309"/><rect x="120" y="130" width="10" height="10" fill="#151b2e"/><rect x="40" y="140" width="80" height="10" fill="#151b2e"/><rect x="40" y="150" width="30" height="10" fill="#151b2e"/><rect x="90" y="150" width="30" height="10" fill="#151b2e"/></g></g>
</svg>
